<svg width="216" height="31" viewBox="0 0 216 31" fill="none" xmlns="http://www.w3.org/2000/svg">
<path d="M15.4219 30.8438C23.9391 30.8438 30.8438 23.9391 30.8438 15.4219C30.8438 6.90461 23.9391 0 15.4219 0C6.90461 0 0 6.90461 0 15.4219C0 23.9391 6.90461 30.8438 15.4219 30.8438Z" fill="#FF6452"/>
<path opacity="0.3" d="M15.4219 27.7594C22.2357 27.7594 27.7593 22.2357 27.7593 15.4219C27.7593 8.6081 22.2357 3.08441 15.4219 3.08441C8.60804 3.08441 3.08435 8.6081 3.08435 15.4219C3.08435 22.2357 8.60804 27.7594 15.4219 27.7594Z" fill="black"/>
<path d="M15.4218 30.8438C19.4031 30.8481 23.2308 29.3075 26.0989 26.5462C25.8419 20.781 25.0862 12.2835 22.8475 7.2226C21.606 4.41582 18.6964 2.53949 15.4218 2.53949C12.1472 2.53949 9.08601 4.33871 7.99619 7.2226C6.06075 12.3195 5.23054 20.9044 4.88354 26.6696C7.73541 29.354 11.5053 30.8473 15.4218 30.8438Z" fill="#393C54"/>
<path d="M20.5959 8.25846C19.6912 6.07884 17.9022 4.96332 15.5221 4.91705H15.3216C12.9415 4.9736 11.1526 6.08912 10.2478 8.25846C9.31481 10.4972 9.00638 13.854 10.2478 18.3315C11.4533 22.701 12.9569 23.5981 15.3216 23.6444H15.5221C17.8868 23.5981 19.3776 22.6882 20.5959 18.3315C21.8477 13.854 21.5289 10.4972 20.5959 8.25846Z" fill="white"/>
<path d="M18.9124 12.5508H20.0459" stroke="#393C54" stroke-miterlimit="10" stroke-linecap="round"/>
<path d="M16.5785 21.5906C15.8116 21.7037 15.0322 21.7037 14.2653 21.5906C13.944 21.5058 13.6227 21.3028 13.6227 20.9481C13.6227 20.5934 13.9311 20.4006 14.2653 20.3055C15.0267 20.1333 15.8171 20.1333 16.5785 20.3055C16.8895 20.3852 17.2211 20.5934 17.2211 20.9481C17.2211 21.3028 16.8947 21.5084 16.5785 21.5906Z" fill="#393C54"/>
<path d="M20.0613 13.908C19.5717 14.0223 19.0593 13.9892 18.5885 13.8129" stroke="#393C54" stroke-miterlimit="10" stroke-linecap="round"/>
<path d="M18.3572 15.679C18.3802 15.4708 18.4792 15.2784 18.6352 15.1386C18.7912 14.9988 18.9933 14.9216 19.2028 14.9216C19.4123 14.9216 19.6144 14.9988 19.7704 15.1386C19.9265 15.2784 20.0255 15.4708 20.0484 15.679C20.0484 16.1493 19.1977 19.3622 18.6322 19.3622C18.3572 19.3519 18.3572 16.139 18.3572 15.679Z" fill="#A7AECE"/>
<path d="M18.3444 10.5383C18.3444 10.7643 18.4341 10.981 18.5939 11.1408C18.7537 11.3006 18.9704 11.3903 19.1964 11.3903C19.4224 11.3903 19.6391 11.3006 19.7989 11.1408C19.9587 10.981 20.0485 10.7643 20.0485 10.5383C20.0485 10.0705 19.3828 7.98853 18.915 7.98853C18.4472 7.98853 18.3444 10.073 18.3444 10.5383Z" fill="#A7AECE"/>
<path d="M10.7979 12.5508H11.9314" stroke="#393C54" stroke-miterlimit="10" stroke-linecap="round"/>
<path d="M12.2553 13.818C11.768 13.9955 11.2385 14.0215 10.7362 13.8925" stroke="#393C54" stroke-miterlimit="10" stroke-linecap="round"/>
<path d="M12.4994 10.5383C12.4994 10.7643 12.4096 10.981 12.2498 11.1408C12.0901 11.3006 11.8733 11.3903 11.6473 11.3903C11.4214 11.3903 11.2046 11.3006 11.0448 11.1408C10.8851 10.981 10.7953 10.7643 10.7953 10.5383C10.7953 10.0705 11.461 7.98853 11.9288 7.98853C12.3966 7.98853 12.4994 10.073 12.4994 10.5383Z" fill="#A7AECE"/>
<path d="M12.4866 15.679C12.4636 15.4708 12.3646 15.2784 12.2085 15.1386C12.0525 14.9988 11.8504 14.9216 11.6409 14.9216C11.4315 14.9216 11.2293 14.9988 11.0733 15.1386C10.9173 15.2784 10.8183 15.4708 10.7953 15.679C10.7953 16.1493 11.6461 19.3622 12.2115 19.3622C12.4866 19.3519 12.4866 16.139 12.4866 15.679Z" fill="#A7AECE"/>
<path d="M16.5553 22.187C16.5553 22.5006 16.0413 22.755 15.4218 22.755C14.8024 22.755 14.2883 22.498 14.2883 22.187C14.2883 22.0276 14.8024 22.1176 15.4218 22.1176C16.0413 22.1176 16.5553 22.0276 16.5553 22.187Z" fill="#A7AECE"/>
<path opacity="0.2" d="M20.5959 8.25841C20.3292 7.59586 19.9384 6.99039 19.4444 6.47461C19.8171 9.12717 19.6063 12.5508 19.0948 17.2339C18.5576 22.1432 16.1569 23.2228 13.6971 23.4027C14.2257 23.5658 14.7761 23.6472 15.3293 23.6443H15.5298C17.8945 23.598 19.3852 22.6881 20.6036 18.3315C21.8476 13.854 21.5289 10.4971 20.5959 8.25841Z" fill="#393C54"/>
<path d="M43.056 24.384C41.712 24.384 40.464 24.176 39.312 23.76C38.176 23.328 37.184 22.72 36.336 21.936C35.504 21.152 34.856 20.224 34.392 19.152C33.928 18.08 33.696 16.896 33.696 15.6C33.696 14.304 33.928 13.12 34.392 12.048C34.856 10.976 35.504 10.048 36.336 9.264C37.184 8.48 38.176 7.88 39.312 7.464C40.464 7.032 41.712 6.816 43.056 6.816C44.704 6.816 46.16 7.104 47.424 7.68C48.704 8.256 49.76 9.088 50.592 10.176L47.016 13.368C46.52 12.744 45.968 12.264 45.36 11.928C44.768 11.576 44.096 11.4 43.344 11.4C42.752 11.4 42.216 11.496 41.736 11.688C41.256 11.88 40.84 12.16 40.488 12.528C40.152 12.896 39.888 13.344 39.696 13.872C39.504 14.384 39.408 14.96 39.408 15.6C39.408 16.24 39.504 16.824 39.696 17.352C39.888 17.864 40.152 18.304 40.488 18.672C40.84 19.04 41.256 19.32 41.736 19.512C42.216 19.704 42.752 19.8 43.344 19.8C44.096 19.8 44.768 19.632 45.36 19.296C45.968 18.944 46.52 18.456 47.016 17.832L50.592 21.024C49.76 22.096 48.704 22.928 47.424 23.52C46.16 24.096 44.704 24.384 43.056 24.384ZM52.0594 24V10.872H57.2194V14.832L56.3794 13.704C56.7794 12.68 57.4194 11.912 58.2994 11.4C59.1794 10.888 60.2354 10.632 61.4674 10.632V15.432C61.2274 15.4 61.0114 15.376 60.8194 15.36C60.6434 15.344 60.4594 15.336 60.2674 15.336C59.4514 15.336 58.7794 15.552 58.2514 15.984C57.7394 16.4 57.4834 17.128 57.4834 18.168V24H52.0594ZM66.2363 28.896C65.5163 28.896 64.7803 28.784 64.0283 28.56C63.2923 28.352 62.7003 28.072 62.2523 27.72L64.0523 24C64.3243 24.208 64.6283 24.376 64.9643 24.504C65.3163 24.632 65.6523 24.696 65.9723 24.696C66.4523 24.696 66.8203 24.592 67.0763 24.384C67.3323 24.192 67.5403 23.896 67.7003 23.496L68.2523 22.104L68.6363 21.576L72.8363 10.872H77.9723L72.5723 24.264C72.0923 25.464 71.5323 26.4 70.8923 27.072C70.2683 27.744 69.5643 28.216 68.7803 28.488C68.0123 28.76 67.1643 28.896 66.2363 28.896ZM67.5083 24.6L61.7962 10.872H67.3643L71.3003 21.096L67.5083 24.6ZM87.5616 24.24C86.4256 24.24 85.4816 24 84.7296 23.52C83.9936 23.024 83.4496 22.28 83.0976 21.288C82.7456 20.28 82.5696 19 82.5696 17.448C82.5696 15.864 82.7296 14.576 83.0496 13.584C83.3856 12.576 83.9216 11.832 84.6576 11.352C85.3936 10.872 86.3616 10.632 87.5616 10.632C88.7136 10.632 89.7696 10.912 90.7296 11.472C91.6896 12.016 92.4576 12.8 93.0336 13.824C93.6096 14.832 93.8976 16.04 93.8976 17.448C93.8976 18.856 93.6096 20.072 93.0336 21.096C92.4576 22.104 91.6896 22.88 90.7296 23.424C89.7696 23.968 88.7136 24.24 87.5616 24.24ZM78.8016 28.656V10.872H83.9616V12.648L83.9856 17.448L84.2256 22.248V28.656H78.8016ZM86.2656 20.016C86.6656 20.016 87.0256 19.92 87.3456 19.728C87.6656 19.536 87.9216 19.248 88.1136 18.864C88.3056 18.48 88.4016 18.008 88.4016 17.448C88.4016 16.872 88.3056 16.392 88.1136 16.008C87.9216 15.624 87.6656 15.336 87.3456 15.144C87.0256 14.952 86.6656 14.856 86.2656 14.856C85.8656 14.856 85.5056 14.952 85.1856 15.144C84.8656 15.336 84.6096 15.624 84.4176 16.008C84.2256 16.392 84.1296 16.872 84.1296 17.448C84.1296 18.008 84.2256 18.48 84.4176 18.864C84.6096 19.248 84.8656 19.536 85.1856 19.728C85.5056 19.92 85.8656 20.016 86.2656 20.016ZM101.942 24.24C100.134 24.24 98.7263 23.808 97.7183 22.944C96.7103 22.064 96.2063 20.72 96.2063 18.912V7.92H101.63V18.864C101.63 19.264 101.734 19.576 101.942 19.8C102.166 20.024 102.438 20.136 102.758 20.136C103.222 20.136 103.63 20.016 103.982 19.776L105.278 23.544C104.862 23.784 104.358 23.96 103.766 24.072C103.19 24.184 102.582 24.24 101.942 24.24ZM94.4062 15.552V11.592H104.318V15.552H94.4062ZM113.23 24.24C111.742 24.24 110.422 23.952 109.27 23.376C108.134 22.784 107.238 21.976 106.582 20.952C105.926 19.928 105.598 18.752 105.598 17.424C105.598 16.096 105.926 14.92 106.582 13.896C107.238 12.872 108.134 12.072 109.27 11.496C110.422 10.92 111.742 10.632 113.23 10.632C114.718 10.632 116.038 10.92 117.19 11.496C118.342 12.072 119.238 12.872 119.878 13.896C120.534 14.92 120.862 16.096 120.862 17.424C120.862 18.752 120.534 19.928 119.878 20.952C119.238 21.976 118.342 22.784 117.19 23.376C116.038 23.952 114.718 24.24 113.23 24.24ZM113.23 20.016C113.63 20.016 113.99 19.92 114.31 19.728C114.63 19.536 114.886 19.248 115.078 18.864C115.27 18.464 115.366 17.984 115.366 17.424C115.366 16.848 115.27 16.376 115.078 16.008C114.886 15.624 114.63 15.336 114.31 15.144C113.99 14.952 113.63 14.856 113.23 14.856C112.83 14.856 112.47 14.952 112.15 15.144C111.83 15.336 111.574 15.624 111.382 16.008C111.19 16.376 111.094 16.848 111.094 17.424C111.094 17.984 111.19 18.464 111.382 18.864C111.574 19.248 111.83 19.536 112.15 19.728C112.47 19.92 112.83 20.016 113.23 20.016ZM131.415 24.384C130.071 24.384 128.823 24.176 127.671 23.76C126.535 23.328 125.543 22.72 124.695 21.936C123.863 21.152 123.215 20.224 122.751 19.152C122.287 18.08 122.055 16.896 122.055 15.6C122.055 14.304 122.287 13.12 122.751 12.048C123.215 10.976 123.863 10.048 124.695 9.264C125.543 8.48 126.535 7.88 127.671 7.464C128.823 7.032 130.071 6.816 131.415 6.816C133.063 6.816 134.519 7.104 135.783 7.68C137.063 8.256 138.119 9.088 138.951 10.176L135.375 13.368C134.879 12.744 134.327 12.264 133.719 11.928C133.127 11.576 132.455 11.4 131.703 11.4C131.111 11.4 130.575 11.496 130.095 11.688C129.615 11.88 129.199 12.16 128.847 12.528C128.511 12.896 128.247 13.344 128.055 13.872C127.863 14.384 127.767 14.96 127.767 15.6C127.767 16.24 127.863 16.824 128.055 17.352C128.247 17.864 128.511 18.304 128.847 18.672C129.199 19.04 129.615 19.32 130.095 19.512C130.575 19.704 131.111 19.8 131.703 19.8C132.455 19.8 133.127 19.632 133.719 19.296C134.327 18.944 134.879 18.456 135.375 17.832L138.951 21.024C138.119 22.096 137.063 22.928 135.783 23.52C134.519 24.096 133.063 24.384 131.415 24.384ZM148.363 24V21.672L147.979 21.048V16.632C147.979 15.992 147.779 15.504 147.379 15.168C146.995 14.832 146.363 14.664 145.483 14.664C144.891 14.664 144.291 14.76 143.683 14.952C143.075 15.128 142.555 15.376 142.123 15.696L140.395 12.12C141.163 11.64 142.083 11.272 143.155 11.016C144.227 10.76 145.275 10.632 146.299 10.632C148.555 10.632 150.299 11.136 151.531 12.144C152.779 13.152 153.403 14.752 153.403 16.944V24H148.363ZM144.643 24.24C143.571 24.24 142.675 24.056 141.955 23.688C141.235 23.32 140.691 22.832 140.323 22.224C139.955 21.6 139.771 20.912 139.771 20.16C139.771 19.312 139.987 18.592 140.419 18C140.851 17.408 141.507 16.96 142.387 16.656C143.283 16.352 144.411 16.2 145.771 16.2H148.507V18.816H146.635C146.059 18.816 145.635 18.912 145.363 19.104C145.107 19.28 144.979 19.552 144.979 19.92C144.979 20.224 145.091 20.48 145.315 20.688C145.555 20.88 145.875 20.976 146.275 20.976C146.643 20.976 146.979 20.88 147.283 20.688C147.603 20.48 147.835 20.16 147.979 19.728L148.675 21.336C148.467 22.312 148.027 23.04 147.355 23.52C146.683 24 145.779 24.24 144.643 24.24ZM164.867 10.632C165.875 10.632 166.787 10.84 167.603 11.256C168.419 11.656 169.059 12.288 169.523 13.152C170.003 14.016 170.243 15.136 170.243 16.512V24H164.819V17.448C164.819 16.632 164.675 16.056 164.387 15.72C164.099 15.368 163.707 15.192 163.211 15.192C162.843 15.192 162.499 15.28 162.179 15.456C161.875 15.616 161.627 15.888 161.435 16.272C161.259 16.656 161.171 17.176 161.171 17.832V24H155.747V10.872H160.907V14.712L159.875 13.608C160.387 12.616 161.075 11.872 161.939 11.376C162.819 10.88 163.795 10.632 164.867 10.632ZM176.084 24L170.804 10.872H176.372L180.38 21.528H177.572L181.844 10.872H186.98L181.7 24H176.084ZM195.285 24V21.672L194.901 21.048V16.632C194.901 15.992 194.701 15.504 194.301 15.168C193.917 14.832 193.285 14.664 192.405 14.664C191.813 14.664 191.213 14.76 190.605 14.952C189.997 15.128 189.477 15.376 189.045 15.696L187.317 12.12C188.085 11.64 189.005 11.272 190.077 11.016C191.149 10.76 192.197 10.632 193.221 10.632C195.477 10.632 197.221 11.136 198.453 12.144C199.701 13.152 200.325 14.752 200.325 16.944V24H195.285ZM191.565 24.24C190.493 24.24 189.597 24.056 188.877 23.688C188.157 23.32 187.613 22.832 187.245 22.224C186.877 21.6 186.693 20.912 186.693 20.16C186.693 19.312 186.909 18.592 187.341 18C187.773 17.408 188.429 16.96 189.309 16.656C190.205 16.352 191.333 16.2 192.693 16.2H195.429V18.816H193.557C192.981 18.816 192.557 18.912 192.285 19.104C192.029 19.28 191.901 19.552 191.901 19.92C191.901 20.224 192.013 20.48 192.237 20.688C192.477 20.88 192.797 20.976 193.197 20.976C193.565 20.976 193.901 20.88 194.205 20.688C194.525 20.48 194.757 20.16 194.901 19.728L195.597 21.336C195.389 22.312 194.949 23.04 194.277 23.52C193.605 24 192.701 24.24 191.565 24.24ZM207.805 24.24C206.685 24.24 205.581 24.12 204.493 23.88C203.405 23.64 202.525 23.328 201.853 22.944L203.341 19.368C203.965 19.736 204.685 20.024 205.501 20.232C206.333 20.44 207.141 20.544 207.925 20.544C208.581 20.544 209.021 20.488 209.245 20.376C209.485 20.264 209.605 20.112 209.605 19.92C209.605 19.728 209.469 19.592 209.197 19.512C208.925 19.416 208.565 19.344 208.117 19.296C207.669 19.248 207.173 19.192 206.629 19.128C206.101 19.048 205.565 18.936 205.021 18.792C204.477 18.648 203.981 18.432 203.533 18.144C203.085 17.856 202.725 17.472 202.453 16.992C202.181 16.496 202.045 15.872 202.045 15.12C202.045 14.288 202.293 13.536 202.789 12.864C203.301 12.192 204.053 11.656 205.045 11.256C206.053 10.84 207.293 10.632 208.765 10.632C209.725 10.632 210.685 10.72 211.645 10.896C212.605 11.072 213.429 11.344 214.117 11.712L212.629 15.288C211.957 14.92 211.293 14.672 210.637 14.544C209.997 14.4 209.397 14.328 208.837 14.328C208.149 14.328 207.677 14.392 207.421 14.52C207.181 14.648 207.061 14.792 207.061 14.952C207.061 15.144 207.197 15.288 207.469 15.384C207.741 15.48 208.101 15.552 208.549 15.6C208.997 15.648 209.485 15.712 210.013 15.792C210.557 15.856 211.093 15.968 211.621 16.128C212.165 16.272 212.661 16.488 213.109 16.776C213.557 17.064 213.917 17.456 214.189 17.952C214.461 18.432 214.597 19.048 214.597 19.8C214.597 20.584 214.349 21.32 213.853 22.008C213.357 22.68 212.605 23.224 211.597 23.64C210.589 24.04 209.325 24.24 207.805 24.24Z" fill="#FF6452"/>
</svg>
