<svg width="486" height="278" viewBox="0 0 486 278" fill="none" xmlns="http://www.w3.org/2000/svg">
<path d="M243 200C298.228 200 343 155.228 343 99.9999C343 44.7715 298.228 0 243 0C187.772 0 143 44.7715 143 99.9999C143 155.228 187.772 200 243 200Z" fill="#FF6452"/>
<path opacity="0.3" d="M243 180C287.183 180 323 144.183 323 100C323 55.8174 287.183 20.0002 243 20.0002C198.817 20.0002 163 55.8174 163 100C163 144.183 198.817 180 243 180Z" fill="black"/>
<path d="M243 200C268.816 200.028 293.636 190.038 312.233 172.133C310.567 134.75 305.667 79.65 291.15 46.8334C283.1 28.6334 264.233 16.4668 243 16.4668C221.767 16.4668 201.917 28.1334 194.85 46.8334C182.3 79.8834 176.917 135.55 174.667 172.933C193.159 190.34 217.604 200.023 243 200Z" fill="#393C54"/>
<path d="M276.55 53.5502C270.684 39.4169 259.084 32.1836 243.65 31.8836H242.35C226.917 32.2502 215.317 39.4836 209.45 53.5502C203.4 68.0669 201.4 89.8335 209.45 118.867C217.267 147.2 227.017 153.017 242.35 153.317H243.65C258.984 153.017 268.65 147.117 276.55 118.867C284.667 89.8335 282.6 68.0669 276.55 53.5502Z" fill="white"/>
<path d="M265.633 81.3832H272.983" stroke="#393C54" stroke-width="8" stroke-miterlimit="10" stroke-linecap="round"/>
<path d="M250.5 140C245.527 140.733 240.473 140.733 235.5 140C233.417 139.45 231.334 138.133 231.334 135.833C231.334 133.533 233.334 132.283 235.5 131.667C240.438 130.55 245.563 130.55 250.5 131.667C252.517 132.183 254.667 133.533 254.667 135.833C254.667 138.133 252.55 139.467 250.5 140Z" fill="#393C54"/>
<path d="M273.083 90.1833C269.909 90.9247 266.586 90.7101 263.533 89.5667" stroke="#393C54" stroke-width="3" stroke-miterlimit="10" stroke-linecap="round"/>
<path d="M262.034 101.667C262.183 100.317 262.825 99.0692 263.836 98.163C264.848 97.2568 266.159 96.7557 267.517 96.7557C268.875 96.7557 270.186 97.2568 271.198 98.163C272.209 99.0692 272.851 100.317 273 101.667C273 104.717 267.484 125.55 263.817 125.55C262.034 125.484 262.034 104.65 262.034 101.667Z" fill="#A7AECE"/>
<path d="M261.95 68.3332C261.95 69.7985 262.532 71.2038 263.569 72.2399C264.605 73.2761 266.01 73.8582 267.475 73.8582C268.941 73.8582 270.346 73.2761 271.382 72.2399C272.418 71.2038 273 69.7985 273 68.3332C273 65.2998 268.684 51.7999 265.65 51.7999C262.617 51.7999 261.95 65.3165 261.95 68.3332Z" fill="#A7AECE"/>
<path d="M213.017 81.3832H220.367" stroke="#393C54" stroke-width="8" stroke-miterlimit="10" stroke-linecap="round"/>
<path d="M222.467 89.6C219.307 90.751 215.874 90.9195 212.617 90.0833" stroke="#393C54" stroke-width="3" stroke-miterlimit="10" stroke-linecap="round"/>
<path d="M224.05 68.3332C224.05 69.7985 223.468 71.2038 222.432 72.2399C221.396 73.2761 219.99 73.8582 218.525 73.8582C217.06 73.8582 215.654 73.2761 214.618 72.2399C213.582 71.2038 213 69.7985 213 68.3332C213 65.2998 217.317 51.7999 220.35 51.7999C223.383 51.7999 224.05 65.3165 224.05 68.3332Z" fill="#A7AECE"/>
<path d="M223.967 101.667C223.818 100.317 223.176 99.0692 222.164 98.163C221.152 97.2568 219.842 96.7557 218.483 96.7557C217.125 96.7557 215.815 97.2568 214.803 98.163C213.791 99.0692 213.149 100.317 213 101.667C213 104.717 218.517 125.55 222.183 125.55C223.967 125.484 223.967 104.65 223.967 101.667Z" fill="#A7AECE"/>
<path d="M250.35 143.867C250.35 145.9 247.017 147.55 243 147.55C238.983 147.55 235.65 145.884 235.65 143.867C235.65 142.834 238.983 143.417 243 143.417C247.017 143.417 250.35 142.834 250.35 143.867Z" fill="#A7AECE"/>
<path opacity="0.2" d="M276.55 53.5499C274.821 49.2538 272.286 45.3277 269.083 41.9833C271.5 59.1833 270.133 81.3832 266.816 111.75C263.333 143.583 247.766 150.583 231.816 151.75C235.244 152.807 238.813 153.336 242.4 153.317H243.7C259.033 153.017 268.7 147.117 276.6 118.867C284.666 89.8332 282.6 68.0666 276.55 53.5499Z" fill="#393C54"/>
<path d="M26.816 263.024C23.232 263.024 19.904 262.469 16.832 261.36C13.8027 260.208 11.1573 258.587 8.896 256.496C6.67733 254.405 4.94933 251.931 3.712 249.072C2.47467 246.213 1.856 243.056 1.856 239.6C1.856 236.144 2.47467 232.987 3.712 230.128C4.94933 227.269 6.67733 224.795 8.896 222.704C11.1573 220.613 13.8027 219.013 16.832 217.904C19.904 216.752 23.232 216.176 26.816 216.176C31.2107 216.176 35.0933 216.944 38.464 218.48C41.8773 220.016 44.6933 222.235 46.912 225.136L37.376 233.648C36.0533 231.984 34.5813 230.704 32.96 229.808C31.3813 228.869 29.5893 228.4 27.584 228.4C26.0053 228.4 24.576 228.656 23.296 229.168C22.016 229.68 20.9067 230.427 19.968 231.408C19.072 232.389 18.368 233.584 17.856 234.992C17.344 236.357 17.088 237.893 17.088 239.6C17.088 241.307 17.344 242.864 17.856 244.272C18.368 245.637 19.072 246.811 19.968 247.792C20.9067 248.773 22.016 249.52 23.296 250.032C24.576 250.544 26.0053 250.8 27.584 250.8C29.5893 250.8 31.3813 250.352 32.96 249.456C34.5813 248.517 36.0533 247.216 37.376 245.552L46.912 254.064C44.6933 256.923 41.8773 259.141 38.464 260.72C35.0933 262.256 31.2107 263.024 26.816 263.024ZM50.825 262V226.992H64.585V237.552L62.345 234.544C63.4117 231.813 65.1183 229.765 67.465 228.4C69.8117 227.035 72.6277 226.352 75.913 226.352V239.152C75.273 239.067 74.697 239.003 74.185 238.96C73.7157 238.917 73.225 238.896 72.713 238.896C70.537 238.896 68.745 239.472 67.337 240.624C65.9717 241.733 65.289 243.675 65.289 246.448V262H50.825ZM88.63 275.056C86.71 275.056 84.7473 274.757 82.742 274.16C80.7793 273.605 79.2007 272.859 78.006 271.92L82.806 262C83.5313 262.555 84.342 263.003 85.238 263.344C86.1767 263.685 87.0727 263.856 87.926 263.856C89.206 263.856 90.1873 263.579 90.87 263.024C91.5527 262.512 92.1073 261.723 92.534 260.656L94.006 256.944L95.03 255.536L106.23 226.992H119.926L105.526 262.704C104.246 265.904 102.753 268.4 101.046 270.192C99.382 271.984 97.5047 273.243 95.414 273.968C93.366 274.693 91.1047 275.056 88.63 275.056ZM92.022 263.6L76.79 226.992H91.638L102.134 254.256L92.022 263.6ZM145.498 262.64C142.468 262.64 139.951 262 137.946 260.72C135.983 259.397 134.532 257.413 133.594 254.768C132.655 252.08 132.186 248.667 132.186 244.528C132.186 240.304 132.612 236.869 133.466 234.224C134.362 231.536 135.791 229.552 137.753 228.272C139.716 226.992 142.298 226.352 145.498 226.352C148.57 226.352 151.386 227.099 153.946 228.592C156.506 230.043 158.554 232.133 160.09 234.864C161.626 237.552 162.394 240.773 162.394 244.528C162.394 248.283 161.626 251.525 160.09 254.256C158.554 256.944 156.506 259.013 153.946 260.464C151.386 261.915 148.57 262.64 145.498 262.64ZM122.138 274.416V226.992H135.898V231.728L135.962 244.528L136.602 257.328V274.416H122.138ZM142.042 251.376C143.108 251.376 144.068 251.12 144.922 250.608C145.775 250.096 146.458 249.328 146.97 248.304C147.482 247.28 147.738 246.021 147.738 244.528C147.738 242.992 147.482 241.712 146.97 240.688C146.458 239.664 145.775 238.896 144.922 238.384C144.068 237.872 143.108 237.616 142.042 237.616C140.975 237.616 140.015 237.872 139.162 238.384C138.308 238.896 137.626 239.664 137.114 240.688C136.602 241.712 136.346 242.992 136.346 244.528C136.346 246.021 136.602 247.28 137.114 248.304C137.626 249.328 138.308 250.096 139.162 250.608C140.015 251.12 140.975 251.376 142.042 251.376ZM183.846 262.64C179.025 262.64 175.27 261.488 172.582 259.184C169.894 256.837 168.55 253.253 168.55 248.432V219.12H183.014V248.304C183.014 249.371 183.291 250.203 183.846 250.8C184.443 251.397 185.169 251.696 186.022 251.696C187.259 251.696 188.347 251.376 189.286 250.736L192.742 260.784C191.633 261.424 190.289 261.893 188.71 262.192C187.174 262.491 185.553 262.64 183.846 262.64ZM163.75 239.472V228.912H190.182V239.472H163.75ZM213.946 262.64C209.978 262.64 206.458 261.872 203.386 260.336C200.357 258.757 197.967 256.603 196.218 253.872C194.469 251.141 193.594 248.005 193.594 244.464C193.594 240.923 194.469 237.787 196.218 235.056C197.967 232.325 200.357 230.192 203.386 228.656C206.458 227.12 209.978 226.352 213.946 226.352C217.914 226.352 221.434 227.12 224.506 228.656C227.578 230.192 229.967 232.325 231.674 235.056C233.423 237.787 234.298 240.923 234.298 244.464C234.298 248.005 233.423 251.141 231.674 253.872C229.967 256.603 227.578 258.757 224.506 260.336C221.434 261.872 217.914 262.64 213.946 262.64ZM213.946 251.376C215.013 251.376 215.973 251.12 216.826 250.608C217.679 250.096 218.362 249.328 218.874 248.304C219.386 247.237 219.642 245.957 219.642 244.464C219.642 242.928 219.386 241.669 218.874 240.688C218.362 239.664 217.679 238.896 216.826 238.384C215.973 237.872 215.013 237.616 213.946 237.616C212.879 237.616 211.919 237.872 211.066 238.384C210.213 238.896 209.53 239.664 209.018 240.688C208.506 241.669 208.25 242.928 208.25 244.464C208.25 245.957 208.506 247.237 209.018 248.304C209.53 249.328 210.213 250.096 211.066 250.608C211.919 251.12 212.879 251.376 213.946 251.376ZM262.441 263.024C258.857 263.024 255.529 262.469 252.457 261.36C249.428 260.208 246.782 258.587 244.521 256.496C242.302 254.405 240.574 251.931 239.337 249.072C238.1 246.213 237.481 243.056 237.481 239.6C237.481 236.144 238.1 232.987 239.337 230.128C240.574 227.269 242.302 224.795 244.521 222.704C246.782 220.613 249.428 219.013 252.457 217.904C255.529 216.752 258.857 216.176 262.441 216.176C266.836 216.176 270.718 216.944 274.089 218.48C277.502 220.016 280.318 222.235 282.537 225.136L273.001 233.648C271.678 231.984 270.206 230.704 268.585 229.808C267.006 228.869 265.214 228.4 263.209 228.4C261.63 228.4 260.201 228.656 258.921 229.168C257.641 229.68 256.532 230.427 255.593 231.408C254.697 232.389 253.993 233.584 253.481 234.992C252.969 236.357 252.713 237.893 252.713 239.6C252.713 241.307 252.969 242.864 253.481 244.272C253.993 245.637 254.697 246.811 255.593 247.792C256.532 248.773 257.641 249.52 258.921 250.032C260.201 250.544 261.63 250.8 263.209 250.8C265.214 250.8 267.006 250.352 268.585 249.456C270.206 248.517 271.678 247.216 273.001 245.552L282.537 254.064C280.318 256.923 277.502 259.141 274.089 260.72C270.718 262.256 266.836 263.024 262.441 263.024ZM307.634 262V255.792L306.61 254.128V242.352C306.61 240.645 306.077 239.344 305.01 238.448C303.986 237.552 302.301 237.104 299.954 237.104C298.375 237.104 296.775 237.36 295.154 237.872C293.533 238.341 292.146 239.003 290.994 239.856L286.386 230.32C288.434 229.04 290.887 228.059 293.746 227.376C296.605 226.693 299.399 226.352 302.13 226.352C308.146 226.352 312.797 227.696 316.082 230.384C319.41 233.072 321.074 237.339 321.074 243.184V262H307.634ZM297.714 262.64C294.855 262.64 292.466 262.149 290.546 261.168C288.626 260.187 287.175 258.885 286.194 257.264C285.213 255.6 284.722 253.765 284.722 251.76C284.722 249.499 285.298 247.579 286.45 246C287.602 244.421 289.351 243.227 291.698 242.416C294.087 241.605 297.095 241.2 300.722 241.2H308.018V248.176H303.026C301.49 248.176 300.359 248.432 299.634 248.944C298.951 249.413 298.61 250.139 298.61 251.12C298.61 251.931 298.909 252.613 299.506 253.168C300.146 253.68 300.999 253.936 302.066 253.936C303.047 253.936 303.943 253.68 304.754 253.168C305.607 252.613 306.226 251.76 306.61 250.608L308.466 254.896C307.911 257.499 306.738 259.44 304.946 260.72C303.154 262 300.743 262.64 297.714 262.64ZM351.645 226.352C354.333 226.352 356.765 226.907 358.941 228.016C361.117 229.083 362.824 230.768 364.061 233.072C365.341 235.376 365.981 238.363 365.981 242.032V262H351.517V244.528C351.517 242.352 351.133 240.816 350.365 239.92C349.597 238.981 348.552 238.512 347.229 238.512C346.248 238.512 345.33 238.747 344.477 239.216C343.666 239.643 343.005 240.368 342.493 241.392C342.024 242.416 341.789 243.803 341.789 245.552V262H327.325V226.992H341.085V237.232L338.333 234.288C339.698 231.643 341.533 229.659 343.837 228.336C346.184 227.013 348.786 226.352 351.645 226.352ZM381.558 262L367.477 226.992H382.326L393.014 255.408H385.526L396.918 226.992H410.614L396.534 262H381.558ZM432.759 262V255.792L431.735 254.128V242.352C431.735 240.645 431.202 239.344 430.135 238.448C429.111 237.552 427.426 237.104 425.079 237.104C423.5 237.104 421.9 237.36 420.279 237.872C418.658 238.341 417.271 239.003 416.119 239.856L411.511 230.32C413.559 229.04 416.012 228.059 418.871 227.376C421.73 226.693 424.524 226.352 427.255 226.352C433.271 226.352 437.922 227.696 441.207 230.384C444.535 233.072 446.199 237.339 446.199 243.184V262H432.759ZM422.839 262.64C419.98 262.64 417.591 262.149 415.671 261.168C413.751 260.187 412.3 258.885 411.319 257.264C410.338 255.6 409.847 253.765 409.847 251.76C409.847 249.499 410.423 247.579 411.575 246C412.727 244.421 414.476 243.227 416.823 242.416C419.212 241.605 422.22 241.2 425.847 241.2H433.143V248.176H428.151C426.615 248.176 425.484 248.432 424.759 248.944C424.076 249.413 423.735 250.139 423.735 251.12C423.735 251.931 424.034 252.613 424.631 253.168C425.271 253.68 426.124 253.936 427.191 253.936C428.172 253.936 429.068 253.68 429.879 253.168C430.732 252.613 431.351 251.76 431.735 250.608L433.591 254.896C433.036 257.499 431.863 259.44 430.071 260.72C428.279 262 425.868 262.64 422.839 262.64ZM466.146 262.64C463.159 262.64 460.215 262.32 457.314 261.68C454.413 261.04 452.066 260.208 450.274 259.184L454.242 249.648C455.906 250.629 457.826 251.397 460.002 251.952C462.221 252.507 464.375 252.784 466.466 252.784C468.215 252.784 469.389 252.635 469.986 252.336C470.626 252.037 470.946 251.632 470.946 251.12C470.946 250.608 470.583 250.245 469.858 250.032C469.133 249.776 468.173 249.584 466.978 249.456C465.783 249.328 464.461 249.179 463.01 249.008C461.602 248.795 460.173 248.496 458.722 248.112C457.271 247.728 455.949 247.152 454.754 246.384C453.559 245.616 452.599 244.592 451.874 243.312C451.149 241.989 450.786 240.325 450.786 238.32C450.786 236.101 451.447 234.096 452.77 232.304C454.135 230.512 456.141 229.083 458.786 228.016C461.474 226.907 464.781 226.352 468.706 226.352C471.266 226.352 473.826 226.587 476.386 227.056C478.946 227.525 481.143 228.251 482.978 229.232L479.01 238.768C477.218 237.787 475.447 237.125 473.698 236.784C471.991 236.4 470.391 236.208 468.898 236.208C467.063 236.208 465.805 236.379 465.122 236.72C464.482 237.061 464.162 237.445 464.162 237.872C464.162 238.384 464.525 238.768 465.25 239.024C465.975 239.28 466.935 239.472 468.13 239.6C469.325 239.728 470.626 239.899 472.034 240.112C473.485 240.283 474.914 240.581 476.322 241.008C477.773 241.392 479.095 241.968 480.29 242.736C481.485 243.504 482.445 244.549 483.17 245.872C483.895 247.152 484.258 248.795 484.258 250.8C484.258 252.891 483.597 254.853 482.274 256.688C480.951 258.48 478.946 259.931 476.258 261.04C473.57 262.107 470.199 262.64 466.146 262.64Z" fill="#FF6452"/>
</svg>
